<svg xmlns="http://www.w3.org/2000/svg" viewBox="0 0 2000 2000"><defs><style>.cls-1{fill:#0f132a;}</style></defs><title>Mesa de trabajo 2</title><g id="Layer_2" data-name="Layer 2"><path class="cls-1" d="M801.47,877.41l271,341.19s-51.88,319.87-239.28,469.12S0,1794.35,0,1794.35,11.87,1722,34.37,1621.13L330.06,1270.6c12.41-14.69-2.72-36.32-20.78-29.69l-188.75,69c45.13-130.19,102.25-250.12,170.63-304.59C478.56,856.1,801.47,877.41,801.47,877.41ZM1989.15,297l-62.06-78.12a49.81,49.81,0,0,0-70-8l-726.5,555.62L1023.87,632.19a34.37,34.37,0,0,0-58.09,6.91L886.62,809.57l271,341.18,183.75-38.9a34.37,34.37,0,0,0,19.82-55L1254.69,922.72l726.5-555.62a49.94,49.94,0,0,0,8-70.13Z"/></g></svg>