<svg xmlns="http://www.w3.org/2000/svg" xmlns:xlink="http://www.w3.org/1999/xlink" viewBox="0 0 2000 2000"><defs><style>.cls-1{fill:#5ba8b2;}.cls-2{fill:#82ad3d;}.cls-3{fill:url(#Degradado_sin_nombre_2);}.cls-4{fill:#517249;}</style><linearGradient id="Degradado_sin_nombre_2" x1="557.64" y1="3304.38" x2="557.64" y2="4579.04" gradientTransform="matrix(1, 0, 0, -1, 702.34, 4579.04)" gradientUnits="userSpaceOnUse"><stop offset="0" stop-color="#00a444"/><stop offset="0" stop-color="#13588f"/><stop offset="0" stop-color="#157a99"/><stop offset="1" stop-color="#2898a3"/></linearGradient></defs><title>Mesa de trabajo 2</title><g id="Layer_2" data-name="Layer 2"><g id="Layer_2-2" data-name="Layer 2"><path class="cls-1" d="M1002.05,0,490,888.21S97.29,1601.89,642.69,1929.12c0,0-94.67-542.27,359.36-654.46,0,0,556.89-112.2,513.25-380.23Z"/><path class="cls-2" d="M1537.12,938.07s64.28,270.1-535.07,378.13c0,0-358.32,62.34-323,635.77,0,0,471.62-135,654.46-365.67,0,0-207,344.89-540.21,401.25,10.51,1.62,21,3.61,31.61,5.14,21.33,3.08,43.09,2.55,64.57,2,21.7-.57,43.44-1.17,65.17-1.17a157.11,157.11,0,0,1,15.79.46c5.7.57,11.27,2.08,17,2.51a54.08,54.08,0,0,0,15.78-1.46,5.87,5.87,0,0,1,2.26-.51c4.23-1,8.45-2.11,12.74-2.92a5.83,5.83,0,0,1,5.47,1.69c11.91-1.55,23.69-4.23,35.64-5.84,16.82-2.22,34-2,50.86-3.87q12.38-1.35,24.64-3.26a5,5,0,0,1,3.91-3.3c33.6-7.21,67.78-12.64,100.82-22.37l.55-.17q4.68-1.54,9.24-3.14c9.19-3.44,18.14-7.47,27.54-10.22q6.43-2.53,12.85-5.16c14.17-5.85,28.24-11.94,42.38-17.86,14.74-6.18,29.8-11.57,44-18.91,25.29-13,45.79-33.6,72.69-43.71a5,5,0,0,1,3.82,0C1631.56,1715.64,1727.21,1447,1537.12,938.07Z"/><path class="cls-3" d="M1002.05,0s476.24,1145.32,0,1274.66c0,0,558.45-113.76,513.25-380.23Z"/><path class="cls-4" d="M1537.12,938.07s172.45,608.76-770.82,1053.38C766.3,1991.45,2017.07,2166,1537.12,938.07Z"/></g></g></svg>