<svg xmlns="http://www.w3.org/2000/svg" xmlns:xlink="http://www.w3.org/1999/xlink" viewBox="0 0 2000 2000"><defs><style>.cls-1{font-size:200px;font-family:Roboto-Thin, Roboto;font-weight:200;}.cls-1,.cls-3{fill:#fff;}.cls-2{letter-spacing:-0.01em;}.cls-3{font-size:240px;font-family:Roboto-Bold, Roboto;font-weight:700;}.cls-4{letter-spacing:0.01em;}.cls-5{letter-spacing:-0.01em;}.cls-6{fill:#5ba8b2;}.cls-7{fill:#82ad3d;}.cls-8{fill:url(#Degradado_sin_nombre_2);}.cls-9{fill:#517249;}</style><linearGradient id="Degradado_sin_nombre_2" x1="-349.82" y1="3472.58" x2="-349.82" y2="3863.39" gradientTransform="matrix(1, 0, 0, -1, 702.34, 4579.04)" gradientUnits="userSpaceOnUse"><stop offset="0" stop-color="#00a444"/><stop offset="0" stop-color="#13588f"/><stop offset="0" stop-color="#157a99"/><stop offset="1" stop-color="#2898a3"/></linearGradient></defs><title>Mesa de trabajo 2</title><g id="Layer_1" data-name="Layer 1"><text class="cls-1" transform="translate(550.88 854.11)">Limpieza &amp;<tspan x="0" y="222">Mantenimien</tspan><tspan class="cls-2" x="1132.03" y="222">t</tspan><tspan x="1193.36" y="222">o</tspan></text><text class="cls-3" transform="translate(550.88 1327.79)"><tspan class="cls-4">M</tspan><tspan class="cls-5" x="212.34" y="0">A</tspan><tspan x="371.37" y="0">CARE</tspan><tspan class="cls-4" x="978.05" y="0">N</tspan><tspan x="1149.61" y="0">A</tspan></text></g><g id="Layer_2" data-name="Layer 2"><g id="Layer_2-2" data-name="Layer 2"><path class="cls-6" d="M273.44,715.65,116.43,988S-4,1206.79,163.26,1307.12c0,0-29-166.26,110.18-200.66,0,0,170.74-34.4,157.36-116.58Z"/><path class="cls-7" d="M437.49,1003.26s19.71,82.81-164,115.94c0,0-109.87,19.11-99,194.93,0,0,144.6-41.41,200.66-112.12,0,0-63.45,105.75-165.63,123,3.23.5,6.45,1.11,9.7,1.58,6.53,1,13.21.78,19.79.61s13.32-.36,20-.36a45.94,45.94,0,0,1,4.84.14c1.75.17,3.46.64,5.22.77a16.72,16.72,0,0,0,4.83-.45,1.88,1.88,0,0,1,.7-.16c1.3-.3,2.59-.64,3.91-.89a1.77,1.77,0,0,1,1.67.52c3.65-.48,7.27-1.3,10.93-1.8,5.16-.68,10.41-.61,15.59-1.18q3.8-.42,7.56-1a1.52,1.52,0,0,1,1.2-1c10.3-2.21,20.78-3.88,30.91-6.86l.17,0c.95-.32,1.9-.64,2.83-1,2.82-1.05,5.56-2.29,8.44-3.13,1.32-.52,2.63-1,3.95-1.58,4.34-1.79,8.65-3.66,13-5.48,4.52-1.89,9.14-3.55,13.5-5.8,7.75-4,14-10.3,22.29-13.4a1.58,1.58,0,0,1,1.17,0C466.45,1241.67,495.77,1159.29,437.49,1003.26Z"/><path class="cls-8" d="M273.44,715.65s146,351.15,0,390.81c0,0,171.22-34.88,157.36-116.58Z"/><path class="cls-9" d="M437.49,1003.26s52.88,186.65-236.33,323C201.16,1326.23,584.64,1379.74,437.49,1003.26Z"/></g></g></svg>