<svg xmlns="http://www.w3.org/2000/svg" viewBox="0 0 2000 2000"><defs><style>.cls-1{fill:#0f132a;}</style></defs><title>Mesa de trabajo 2</title><g id="Layer_2" data-name="Layer 2"><path class="cls-1" d="M1983.72,786.07l-78.58-78.57a55.56,55.56,0,0,0-78.58,0l-39.27,39.27L1686.94,646.42c19.55-74,1.25-155.9-56.77-213.93L1473.05,275.38c-216.94-216.95-568.72-216.95-785.7,0l314.28,157.11V497.6a222.12,222.12,0,0,0,65.1,157.12l170.63,170.62c58,58,139.93,76.32,213.92,56.78l100.35,100.34-39.27,39.27a55.56,55.56,0,0,0,0,78.58l78.58,78.58a55.55,55.55,0,0,0,78.57,0l314.27-314.27a55.58,55.58,0,0,0-.06-78.55ZM988.15,733.3c-12.84-12.85-23.75-27-34.2-41.5l-885.77,827C-20.6,1601.7-23,1741.67,62.87,1827.57s225.87,83.51,308.79-5.31L1198.5,936.6c-13.75-10.11-27.43-20.39-39.72-32.68L988.15,733.3Z"/></g></svg>