<svg xmlns="http://www.w3.org/2000/svg" xmlns:xlink="http://www.w3.org/1999/xlink" viewBox="0 0 2000 2000"><defs><style>.cls-1{fill:#fff;}.cls-2{fill:#5ba8b2;}.cls-3{fill:#82ad3d;}.cls-4{fill:url(#Degradado_sin_nombre_2);}.cls-5{fill:#517249;}</style><linearGradient id="Degradado_sin_nombre_2" x1="-349.82" y1="3472.58" x2="-349.82" y2="3863.39" gradientTransform="matrix(1, 0, 0, -1, 702.34, 4579.04)" gradientUnits="userSpaceOnUse"><stop offset="0" stop-color="#00a444"/><stop offset="0" stop-color="#13588f"/><stop offset="0" stop-color="#157a99"/><stop offset="1" stop-color="#2898a3"/></linearGradient></defs><title>Mesa de trabajo 2</title><g id="Layer_1" data-name="Layer 1"><path class="cls-1" d="M573.22,716.44h12.32V864.63h85.72L669,876H573.22Z"/><path class="cls-1" d="M698.16,708h11.4v22.12h-11.4Zm0,54h11.4V876h-11.4Z"/><path class="cls-1" d="M747,791.45c0-9.81,0-20.52-.23-29.41H757.9c.22,3.87.68,13.67.45,20.29,4.79-11.4,15.28-23,34.2-23,16,0,28.5,8,33.06,22.57,5.7-11.85,17.1-22.57,37.17-22.57,17.55,0,35.79,10,35.79,41.72v75h-11.4V802.39c0-15.28-5.47-31.92-26.67-31.92-22.12,0-32.15,17.78-32.15,39.9V876H817.18V802.62c0-16.64-5-32.15-26-32.15-22.11,0-32.83,19.61-32.83,42.86V876H747Z"/><path class="cls-1" d="M947.36,859.16v62.47H936V790.08c0-9.35,0-19.38-.22-28h11.17c.45,4.33.45,11.17.45,20.52,7.07-13.68,19.61-23.26,40.13-23.26,26.9,0,45.6,22.57,45.6,56.77,0,41-21.89,62.7-49.48,62.7C963.55,878.77,953.06,869.88,947.36,859.16ZM1021,816.53c0-26.45-12.77-46.29-35.34-46.29-27.59,0-39,17.33-39,48.34,0,30.55,8.89,49.47,37.39,49.47C1007.78,868.05,1021,848,1021,816.53Z"/><path class="cls-1" d="M1062.5,708h11.4v22.12h-11.4Zm0,54h11.4V876h-11.4Z"/><path class="cls-1" d="M1113.8,820.4c.23,29.41,15,47.65,36.93,47.65,21.44,0,28.73-12.08,32.84-21.43h11.62c-4.78,15-16.87,32.15-44.91,32.15-34.66,0-48.11-29.87-48.11-58.82,0-32.61,16.19-60.65,49.48-60.65,35.11,0,46.28,30.32,46.28,51.75,0,3.2,0,6.39-.23,9.35Zm72.27-10c-.22-22.57-12.54-40.35-34.88-40.35-23.48,0-34.2,16.41-36.71,40.35Z"/><path class="cls-1" d="M1213,865.55l72-92.8h-68.39V762h81.62V773l-71.14,92.34h73.65L1298,876h-85Z"/><path class="cls-1" d="M1402.44,854.37A129.35,129.35,0,0,0,1404,876h-11c-.91-2.73-1.59-7.75-2-17.55-3.88,8.43-13.91,20.29-37.39,20.29-26.45,0-37.85-17.1-37.85-34.2,0-25.08,19.38-36.48,53.58-36.48H1391V796.46c0-11.4-3.42-26.67-29.41-26.67-23,0-26.45,12.08-29,21.43h-11.4c1.37-12.54,9.12-31.92,40.59-31.92,26,0,40.58,10.94,40.58,36Zm-11.17-36.48h-22.35c-25.3,0-41,6.62-41,26.22,0,14.37,10.26,24.17,26.22,24.17,32.61,0,37.17-21.66,37.17-46.28Z"/><path class="cls-1" d="M1632.72,773.44,1593.05,835c-19.38,29.87-33.29,43.32-58.83,43.32-26,0-41.26-20.74-41.26-40.58,0-19.38,8.89-34.2,42.63-52.44,23.26-15,31.92-21.43,31.92-36,0-12.54-8-24.63-23.26-24.63-14.36,0-24.39,8.9-24.39,25.54,0,10.26,7.07,19.84,20.75,32.83L1635,876h-17.1l-86.19-85c-14.81-14.14-23.48-24.62-23.48-40.81,0-18,12.09-36,36.48-36,20.52,0,34.66,15.5,34.66,35.11,0,15.5-8.44,25.53-36.48,42.86-32.15,18.24-37.62,29.41-37.62,44.69,0,16.41,14.13,30.32,29,30.32,18.47,0,30.78-6.38,51.3-39.21l34-54.49Z"/><path class="cls-1" d="M711.39,1025.62c0-31.24.23-61.1.91-77.06h-.68c-6.39,21.43-38.76,100.09-59,150.47H640.48c-15.27-39-48.79-126.53-56.08-150.7h-.46c1.14,18.24,1.6,55.4,1.6,82.76V1099H573.22V939.44h18.47c21.89,54.72,49.48,126.31,55.4,144.32h.46c3.65-11.63,35.57-91.2,57.91-144.32H723.7V1099H711.39Z"/><path class="cls-1" d="M839.75,1077.37a130.47,130.47,0,0,0,1.6,21.66H830.41c-.92-2.73-1.6-7.75-2.06-17.55-3.87,8.43-13.9,20.29-37.39,20.29-26.45,0-37.85-17.1-37.85-34.2,0-25.08,19.38-36.48,53.58-36.48h21.66v-11.63c0-11.4-3.42-26.67-29.41-26.67-23,0-26.45,12.08-29,21.43h-11.4c1.36-12.54,9.12-31.92,40.58-31.92,26,0,40.58,10.94,40.58,36Zm-11.17-36.48H806.24c-25.31,0-41,6.62-41,26.22,0,14.37,10.26,24.17,26.22,24.17,32.6,0,37.16-21.66,37.16-46.28Z"/><path class="cls-1" d="M877.37,1013.76c0-10,0-19.6-.22-28.72h11.17c.45,3.64.68,18.46.45,21.66,5-11.63,14.37-24.4,37.85-24.4,20.29,0,38.3,11.4,38.3,42.86V1099h-11.4v-72c0-20.29-8.43-33.52-28.27-33.52-27.13,0-36.48,22.57-36.48,47.42V1099h-11.4Z"/><path class="cls-1" d="M984.53,985h21.21V949.47h11.4V985h27.13v10.71h-27.13v74.1c0,12.77,2.73,20.06,13.68,20.06a43.05,43.05,0,0,0,11.85-1.36v10c-3.87,1.59-9.35,2.05-14.13,2.05-14.6,0-22.8-7.3-22.8-25.54V995.75H984.53Z"/><path class="cls-1" d="M1068.66,1043.4c.23,29.41,15,47.65,36.94,47.65,21.43,0,28.73-12.08,32.83-21.43h11.63c-4.79,15.05-16.87,32.15-44.92,32.15-34.65,0-48.1-29.87-48.1-58.82,0-32.61,16.18-60.65,49.47-60.65,35.11,0,46.28,30.32,46.28,51.75,0,3.2,0,6.39-.22,9.35Zm72.28-10c-.23-22.57-12.54-40.35-34.89-40.35-23.48,0-34.2,16.41-36.7,40.35Z"/><path class="cls-1" d="M1180.61,1013.76c0-10,0-19.6-.23-28.72h11.17c.46,3.64.69,18.46.46,21.66,5-11.63,14.36-24.4,37.85-24.4,20.29,0,38.3,11.4,38.3,42.86V1099h-11.4v-72c0-20.29-8.43-33.52-28.27-33.52-27.13,0-36.48,22.57-36.48,47.42V1099h-11.4Z"/><path class="cls-1" d="M1305.55,931H1317v22.12h-11.4Zm0,54H1317v114h-11.4Z"/><path class="cls-1" d="M1354.34,1014.45c0-9.81,0-20.52-.23-29.41h11.18c.22,3.87.68,13.68.45,20.29,4.79-11.4,15.28-23,34.2-23,16,0,28.5,8,33.06,22.57,5.7-11.85,17.1-22.57,37.16-22.57,17.56,0,35.8,10,35.8,41.72v75h-11.4v-73.64c0-15.27-5.47-31.92-26.68-31.92-22.11,0-32.14,17.79-32.14,39.9V1099h-11.18v-73.41c0-16.64-5-32.15-26-32.15-22.11,0-32.83,19.61-32.83,42.86V1099h-11.4Z"/><path class="cls-1" d="M1543.35,931h11.4v22.12h-11.4Zm0,54h11.4v114h-11.4Z"/><path class="cls-1" d="M1594.65,1043.4c.23,29.41,15,47.65,36.93,47.65,21.44,0,28.73-12.08,32.84-21.43H1676c-4.78,15.05-16.87,32.15-44.91,32.15-34.66,0-48.11-29.87-48.11-58.82,0-32.61,16.19-60.65,49.48-60.65,35.11,0,46.28,30.32,46.28,51.75,0,3.2,0,6.39-.23,9.35Zm72.27-10C1666.7,1010.8,1654.38,993,1632,993c-23.48,0-34.2,16.41-36.71,40.35Z"/><path class="cls-1" d="M1706.6,1013.76c0-10,0-19.6-.23-28.72h11.17c.46,3.64.68,18.46.46,21.66,5-11.63,14.36-24.4,37.84-24.4,20.3,0,38.31,11.4,38.31,42.86V1099h-11.4v-72c0-20.29-8.44-33.52-28.27-33.52-27.14,0-36.48,22.57-36.48,47.42V1099h-11.4Z"/><path class="cls-1" d="M1813.76,985H1835V949.47h11.4V985h27.13v10.71h-27.13v74.1c0,12.77,2.74,20.06,13.68,20.06a43.12,43.12,0,0,0,11.86-1.36v10c-3.88,1.59-9.35,2.05-14.14,2.05-14.59,0-22.8-7.3-22.8-25.54V995.75h-21.2Z"/><path class="cls-1" d="M1987.72,1041.81c0,31.69-17.56,60-51.53,60-30.78,0-49.93-25.31-49.93-59.73,0-32.61,18-59.74,51.07-59.74C1967.65,982.3,1987.72,1006,1987.72,1041.81Zm-89.38.23c0,27.13,14.59,49,38.76,49,24.63,0,38.53-20.29,38.53-49,0-26.91-13.68-49-39-49C1910.65,993,1898.34,1014.68,1898.34,1042Z"/><path class="cls-1" d="M569,1176.12H631.7c32.23,0,54.11,18.13,54.11,47,0,33-24.95,48.07-54.87,48.07H601.78v56.64H569ZM601.78,1245h25c15.17,0,25.9-5.84,25.9-21.32,0-15.65-11.32-21.5-25.22-21.5H601.78Z"/><path class="cls-1" d="M743.21,1176.12v151.67h-32.8V1176.12Z"/><path class="cls-1" d="M779.49,1327.79V1176.12h40.65c18.94,34.05,54,95.47,60.93,112h.41c-1.71-15.83-1.68-42.17-1.68-67v-45h29.72v151.67H871c-16.29-29.63-55.09-100.2-62.61-117.72H808c1.1,13.27,1.46,44.43,1.46,71.59v46.13Z"/><path class="cls-1" d="M1085.21,1251.43c0,42.22-25.34,78.56-74.61,78.56-47.6,0-72.51-34.59-72.51-78,0-44.14,27.52-78,74.64-78C1057.1,1173.92,1085.21,1205,1085.21,1251.43ZM972,1251.29c0,29.61,13,52,39.89,52,29.16,0,39.49-24.42,39.49-51.45,0-28.7-11.75-51.25-40-51.25C983.92,1200.6,972,1221.76,972,1251.29Z"/><path class="cls-1" d="M1167.13,1176.12H1273V1203h-73.84v37.16h69.17V1267h-69.17v60.75h-32Z"/><path class="cls-1" d="M1297.36,1176.12h32.8v124.79h75.55l-3.74,26.88H1297.36Z"/><path class="cls-1" d="M1562.39,1251.43c0,42.22-25.34,78.56-74.61,78.56-47.6,0-72.51-34.59-72.51-78,0-44.14,27.52-78,74.63-78C1534.27,1173.92,1562.39,1205,1562.39,1251.43Zm-113.25-.14c0,29.61,13,52,39.88,52,29.17,0,39.5-24.42,39.5-51.45,0-28.7-11.75-51.25-40-51.25C1461.1,1200.6,1449.14,1221.76,1449.14,1251.29Z"/><path class="cls-1" d="M1623.11,1267.08v60.71h-32V1176.12h66.64c33.07,0,50.88,18.21,50.88,41.64,0,20.35-11.08,31.37-22,35.88,7.52,2.78,18.85,10.6,18.85,37.75v7.49c0,10.2.09,21.81,2.18,28.91h-31.08c-2.67-6.6-3.17-18-3.17-34v-2.22c0-16.59-4.19-24.44-28.63-24.44Zm0-26.1h27.5c18,0,24.88-6.83,24.88-19.52,0-12.33-8.06-19.24-24.1-19.24h-28.28Z"/><path class="cls-1" d="M1842.17,1262.38h-72.54v38.53h80l-3.9,26.88h-108V1176.12h107.55V1203h-75.72v32.5h72.54Z"/><path class="cls-1" d="M1898,1283.33c3.45,15.23,14.38,21.91,31.94,21.91s25-6.91,25-18c0-12.34-7.31-17.7-33.25-23.73-41.28-9.69-51.48-24.71-51.48-45.19,0-26.43,19.77-44.38,55.68-44.38,40.27,0,56.31,21.64,58.49,43.83h-33c-1.58-9.33-6.74-19.47-26.3-19.47-13.31,0-21.34,5.5-21.34,16.27,0,10.54,6.44,14.82,30.95,20.5,44.11,10.4,53.79,26.81,53.79,48.2,0,27.69-21,46.69-61,46.69-38.5,0-58.78-19-62.42-46.61Z"/></g><g id="Layer_2" data-name="Layer 2"><g id="Layer_2-2" data-name="Layer 2"><path class="cls-2" d="M273.44,715.65,116.43,988S-4,1206.79,163.26,1307.12c0,0-29-166.26,110.18-200.66,0,0,170.74-34.4,157.36-116.58Z"/><path class="cls-3" d="M437.49,1003.26s19.71,82.81-164,115.94c0,0-109.87,19.11-99,194.93,0,0,144.6-41.41,200.66-112.12,0,0-63.45,105.75-165.63,123,3.23.5,6.45,1.11,9.7,1.58,6.53,1,13.21.78,19.79.61s13.32-.36,20-.36a45.94,45.94,0,0,1,4.84.14c1.75.17,3.46.64,5.22.77a16.72,16.72,0,0,0,4.83-.45,1.88,1.88,0,0,1,.7-.16c1.3-.3,2.59-.64,3.91-.89a1.77,1.77,0,0,1,1.67.52c3.65-.48,7.27-1.3,10.93-1.8,5.16-.68,10.41-.61,15.59-1.18q3.8-.42,7.56-1a1.52,1.52,0,0,1,1.2-1c10.3-2.21,20.78-3.88,30.91-6.86l.17,0c.95-.32,1.9-.64,2.83-1,2.82-1.05,5.56-2.29,8.44-3.13,1.32-.52,2.63-1,3.95-1.58,4.34-1.79,8.65-3.66,13-5.48,4.52-1.89,9.14-3.55,13.5-5.8,7.75-4,14-10.3,22.29-13.4a1.58,1.58,0,0,1,1.17,0C466.45,1241.67,495.77,1159.29,437.49,1003.26Z"/><path class="cls-4" d="M273.44,715.65s146,351.15,0,390.81c0,0,171.22-34.88,157.36-116.58Z"/><path class="cls-5" d="M437.49,1003.26s52.88,186.65-236.33,323C201.16,1326.23,584.64,1379.74,437.49,1003.26Z"/></g></g></svg>